<svg width="572" height="132" viewBox="0 0 572 132" fill="none" xmlns="http://www.w3.org/2000/svg">
<g clip-path="url(#clip0_3_4)">
<path d="M8.4 102V29H19.2V47L19.1 57.5H21.7L19.1 60C19.1 55.6 20.4 52.1667 23 49.7C25.6 47.2333 29.2 46 33.8 46C39.2667 46 43.6333 47.7667 46.9 51.3C50.1667 54.7667 51.8 59.4667 51.8 65.4V102H41V66.6C41 63 40.0333 60.2 38.1 58.2C36.1667 56.2 33.5333 55.2 30.2 55.2C26.8 55.2 24.1 56.2667 22.1 58.4C20.1667 60.4667 19.2 63.4333 19.2 67.3V102H8.4ZM68.0609 102V92.2H87.3609V56.8H70.5609V47H97.8609V92.2H115.561V102H68.0609ZM91.5609 37.5C89.2276 37.5 87.3609 36.9 85.9609 35.7C84.5609 34.4333 83.8609 32.7667 83.8609 30.7C83.8609 28.5667 84.5609 26.9 85.9609 25.7C87.3609 24.4333 89.2276 23.8 91.5609 23.8C93.8943 23.8 95.7609 24.4333 97.1609 25.7C98.5609 26.9 99.2609 28.5667 99.2609 30.7C99.2609 32.7667 98.5609 34.4333 97.1609 35.7C95.7609 36.9 93.8943 37.5 91.5609 37.5ZM150.322 103C145.789 103 141.789 102.167 138.322 100.5C134.922 98.7667 132.289 96.3 130.422 93.1C128.622 89.8333 127.722 86.0333 127.722 81.7V67.3C127.722 62.9 128.622 59.1 130.422 55.9C132.289 52.7 134.922 50.2667 138.322 48.6C141.789 46.8667 145.789 46 150.322 46C156.922 46 162.222 47.7333 166.222 51.2C170.222 54.6667 172.322 59.4 172.522 65.4H161.722C161.522 62.2667 160.422 59.8333 158.422 58.1C156.422 56.3667 153.722 55.5 150.322 55.5C146.655 55.5 143.755 56.5333 141.622 58.6C139.489 60.6 138.422 63.4667 138.422 67.2V81.7C138.422 85.4333 139.489 88.3333 141.622 90.4C143.755 92.4667 146.655 93.5 150.322 93.5C153.722 93.5 156.422 92.6333 158.422 90.9C160.422 89.1667 161.522 86.7333 161.722 83.6H172.522C172.322 89.6 170.222 94.3333 166.222 97.8C162.222 101.267 156.922 103 150.322 103ZM188.283 102V29H199.083V47L198.983 57.5H201.583L198.983 60C198.983 55.6 200.283 52.1667 202.883 49.7C205.483 47.2333 209.083 46 213.683 46C219.149 46 223.516 47.7667 226.783 51.3C230.049 54.7667 231.683 59.4667 231.683 65.4V102H220.883V66.6C220.883 63 219.916 60.2 217.983 58.2C216.049 56.2 213.416 55.2 210.083 55.2C206.683 55.2 203.983 56.2667 201.983 58.4C200.049 60.4667 199.083 63.4333 199.083 67.3V102H188.283ZM264.344 103C258.61 103 254.077 101.533 250.744 98.6C247.477 95.6 245.844 91.5333 245.844 86.4C245.844 81.2 247.577 77.1333 251.044 74.2C254.577 71.2 259.41 69.7 265.544 69.7H280.844V64.6C280.844 61.6 279.91 59.2667 278.044 57.6C276.177 55.9333 273.544 55.1 270.144 55.1C267.144 55.1 264.644 55.7667 262.644 57.1C260.644 58.3667 259.477 60.0667 259.144 62.2H248.544C249.144 57.2667 251.41 53.3333 255.344 50.4C259.344 47.4667 264.377 46 270.444 46C276.977 46 282.144 47.6667 285.944 51C289.744 54.2667 291.644 58.7333 291.644 64.4V102H281.144V91.9H279.344L281.144 89.9C281.144 93.9 279.61 97.1 276.544 99.5C273.477 101.833 269.41 103 264.344 103ZM267.544 94.7C271.41 94.7 274.577 93.7333 277.044 91.8C279.577 89.8 280.844 87.2667 280.844 84.2V77H265.744C262.944 77 260.71 77.7667 259.044 79.3C257.444 80.8333 256.644 82.9333 256.644 85.6C256.644 88.4 257.61 90.6333 259.544 92.3C261.477 93.9 264.144 94.7 267.544 94.7ZM310.005 102V47H320.405V57.5H323.005L319.705 64C319.705 58.0667 321.005 53.6 323.605 50.6C326.205 47.5333 330.071 46 335.205 46C341.071 46 345.705 47.8333 349.105 51.5C352.571 55.1 354.305 60.0667 354.305 66.4V70.1H343.205V67.3C343.205 63.3667 342.205 60.3667 340.205 58.3C338.271 56.1667 335.538 55.1 332.005 55.1C328.471 55.1 325.705 56.1667 323.705 58.3C321.771 60.4333 320.805 63.4333 320.805 67.3V102H310.005ZM397.666 102C394.266 102 391.299 101.333 388.766 100C386.232 98.6 384.232 96.6333 382.766 94.1C381.366 91.5667 380.666 88.6333 380.666 85.3V38.8H362.666V29H391.466V85.3C391.466 87.4333 392.066 89.1333 393.266 90.4C394.466 91.6 396.099 92.2 398.166 92.2H415.166V102H397.666ZM449.727 103C445.26 103 441.327 102.133 437.927 100.4C434.593 98.6 432.027 96.1 430.227 92.9C428.427 89.7 427.527 85.9667 427.527 81.7V67.3C427.527 62.9667 428.427 59.2333 430.227 56.1C432.027 52.9 434.593 50.4333 437.927 48.7C441.327 46.9 445.26 46 449.727 46C454.26 46 458.193 46.9 461.527 48.7C464.86 50.4333 467.427 52.9 469.227 56.1C471.027 59.2333 471.927 62.9667 471.927 67.3V77.1H437.927V81.7C437.927 85.7667 438.927 88.8667 440.927 91C442.993 93.1333 445.96 94.2 449.827 94.2C452.96 94.2 455.493 93.6667 457.427 92.6C459.36 91.4667 460.56 89.8333 461.027 87.7H471.727C470.927 92.3667 468.527 96.1 464.527 98.9C460.527 101.633 455.593 103 449.727 103ZM461.527 70.6V67.2C461.527 63.2 460.527 60.1 458.527 57.9C456.527 55.7 453.593 54.6 449.727 54.6C445.927 54.6 442.993 55.7 440.927 57.9C438.927 60.1 437.927 63.2333 437.927 67.3V69.8L462.327 69.7L461.527 70.6ZM507.788 102.9C503.854 102.9 500.388 102.267 497.388 101C494.454 99.7333 492.121 98 490.388 95.8C488.721 93.5333 487.754 90.8667 487.488 87.8H498.288C498.554 89.6 499.521 91.0667 501.188 92.2C502.854 93.2667 505.054 93.8 507.788 93.8H512.088C515.354 93.8 517.821 93.1333 519.488 91.8C521.154 90.4667 521.988 88.7 521.988 86.5C521.988 84.3667 521.221 82.7 519.688 81.5C518.221 80.2333 516.021 79.4 513.088 79L505.988 77.9C500.121 76.9667 495.788 75.3 492.988 72.9C490.254 70.4333 488.888 66.8 488.888 62C488.888 56.9333 490.521 53.0333 493.788 50.3C497.121 47.5 502.021 46.1 508.488 46.1H512.288C518.021 46.1 522.588 47.4333 525.988 50.1C529.454 52.7 531.421 56.2 531.888 60.6H521.088C520.821 59 519.921 57.7 518.388 56.7C516.921 55.7 514.888 55.2 512.288 55.2H508.488C505.354 55.2 503.054 55.8 501.588 57C500.188 58.1333 499.488 59.8333 499.488 62.1C499.488 64.1 500.121 65.6 501.388 66.6C502.654 67.6 504.621 68.3 507.288 68.7L514.588 69.9C520.788 70.7667 525.321 72.5 528.188 75.1C531.121 77.6333 532.588 81.3333 532.588 86.2C532.588 91.4667 530.854 95.5667 527.388 98.5C523.988 101.433 518.888 102.9 512.088 102.9H507.788Z" fill="#181C25"></path>
<rect x="554" y="29" width="18" height="74" rx="2" fill="#10B981"></rect>
</g>
<defs>
<clipPath id="clip0_3_4">
<rect width="572" height="132" fill="white"></rect>
</clipPath>
</defs>
</svg>